# Blender 4.4.3
# www.blender.org
mtllib clouds.mtl
o cube
fc #42e6f5
v -1.029035 3.619416 -0.393429
v -0.930429 4.580570 1.357701
v -1.855322 5.235278 -1.233810
v -1.756715 6.196434 0.517320
v 0.789626 4.301450 -0.870191
v 0.888232 5.262605 0.880939
v -0.036661 5.917313 -1.710572
v 1.880607 7.560501 -0.436203
v 1.782001 6.599346 -2.187334
v 2.608287 4.983484 -1.346953
v 2.706894 5.944639 0.404177
v -0.831822 5.541725 3.108832
v -1.658108 7.157588 2.268451
v 0.160553 7.839622 1.791689
v 0.986839 6.223760 2.632070
v 1.979214 8.521656 1.314927
v 2.805500 6.905794 2.155308
v -2.583001 7.812296 -0.323061
v -2.681608 6.851141 -2.074191
v -0.862947 7.533175 -2.550953
v -0.764340 8.494329 -0.799823
v 1.054321 9.176364 -1.276584
v 0.955714 8.215209 -3.027714
v -2.484395 8.773451 1.428070
v -0.665734 9.455484 0.951308
v 1.152927 10.137518 0.474547
vn -0.9093 -0.3410 0.2384
vn 0.4131 -0.8079 0.4202
vn -0.0493 -0.4806 -0.8756
vn 0.9093 0.3410 -0.2384
vn 0.0493 0.4806 0.8756
vn -0.4131 0.8079 -0.4202
vt 0.375000 0.000000
vt 0.625000 0.000000
vt 0.625000 0.250000
vt 0.375000 0.250000
vt 0.625000 0.750000
vt 0.375000 0.750000
vt 0.625000 1.000000
vt 0.375000 1.000000
vt 0.125000 0.500000
vt 0.375000 0.500000
vt 0.125000 0.750000
vt 0.625000 0.500000
vt 0.875000 0.500000
vt 0.875000 0.750000
s 0
usemtl Material
f 1/1/1 2/2/1 4/3/1 3/4/1
f 4/3/1 13/3/1 24/3/1 18/3/1
f 6/5/2 5/6/2 10/6/2 11/5/2
f 5/6/2 6/5/2 2/7/2 1/8/2
f 3/9/3 7/10/3 5/6/3 1/11/3
f 2/7/2 6/5/2 15/5/2 12/7/2
f 9/10/4 8/12/4 11/5/4 10/6/4
f 5/6/3 7/10/3 9/10/3 10/6/3
f 4/3/1 2/2/1 12/2/1 13/3/1
f 9/10/3 7/10/3 20/10/3 23/10/3
f 14/12/5 13/13/5 12/14/5 15/5/5
f 14/12/5 15/5/5 17/5/5 16/12/5
f 7/10/3 3/9/3 19/9/3 20/10/3
f 11/5/4 8/12/4 16/12/4 17/5/4
f 14/12/5 16/12/5 26/12/5 25/12/5
f 6/5/2 11/5/2 17/5/2 15/5/2
f 19/4/6 18/3/6 21/12/6 20/10/6
f 20/10/6 21/12/6 22/12/6 23/10/6
f 21/12/6 18/3/6 24/3/6 25/12/6
f 22/12/6 21/12/6 25/12/6 26/12/6
f 3/4/1 4/3/1 18/3/1 19/4/1
f 8/12/4 9/10/4 23/10/4 22/12/4
f 13/13/5 14/12/5 25/12/5 24/13/5
f 16/12/4 8/12/4 22/12/4 26/12/4
o L
fc #ce42f5
v -5.019359 3.586699 -3.291762
v -6.577008 4.840409 -3.247681
v -4.379920 4.440639 -4.983478
v -5.937567 5.694350 -4.939397
v -3.940077 4.890153 -2.225856
v -5.497725 6.143864 -2.181775
v -3.300637 5.744095 -3.917572
v -4.858285 6.997805 -3.873491
v -5.459201 3.137184 -6.049383
v -6.098641 2.283243 -4.357668
v -7.656290 3.536953 -4.313587
v -7.016849 4.390894 -6.005302
v -6.538483 1.833729 -7.115289
v -7.177924 0.979787 -5.423573
v -8.735571 2.233498 -5.379493
v -8.096130 3.087439 -7.071209
v -9.213938 4.790664 -4.269507
v -8.574497 5.644605 -5.961222
v -10.293219 3.487208 -5.335413
v -9.653778 4.341150 -7.027128
vn 0.3197 0.4270 -0.8459
vn 0.5396 0.6517 0.5330
vn -0.3197 -0.4270 0.8459
vn 0.7788 -0.6269 -0.0220
vn -0.7788 0.6269 0.0220
vn -0.5396 -0.6517 -0.5330
vt 0.625000 0.250000
vt 0.375000 0.250000
vt 0.625000 0.500000
vt 0.375000 0.500000
vt 0.625000 0.750000
vt 0.375000 0.750000
vt 0.625000 1.000000
vt 0.375000 1.000000
vt 0.125000 0.500000
vt 0.125000 0.750000
vt 0.875000 0.500000
vt 0.875000 0.750000
vt 0.375000 0.000000
vt 0.625000 0.000000
s 0
usemtl Material
f 30/15/7 29/16/7 35/16/7 38/15/7
f 29/16/7 30/15/7 34/17/7 33/18/7
f 33/18/8 34/17/8 32/19/8 31/20/8
f 31/20/9 32/19/9 28/21/9 27/22/9
f 29/23/10 33/18/10 31/20/10 27/24/10
f 34/17/11 30/25/11 28/26/11 32/19/11
f 37/26/8 38/25/8 44/25/8 43/26/8
f 27/22/9 28/21/9 37/21/9 36/22/9
f 28/26/11 30/25/11 38/25/11 37/26/11
f 29/23/10 27/24/10 36/24/10 35/23/10
f 40/27/12 41/28/12 42/15/12 39/16/12
f 35/23/10 36/24/10 40/24/10 39/23/10
f 38/15/7 35/16/7 39/16/7 42/15/7
f 36/22/9 37/21/9 41/21/9 40/22/9
f 43/26/11 44/25/11 46/25/11 45/26/11
f 41/21/9 37/21/9 43/21/9 45/21/9
f 38/15/7 42/15/7 46/15/7 44/15/7
f 42/15/12 41/28/12 45/28/12 46/15/12
o stick
fc #f542aa
v 4.472232 2.792289 -5.467333
v 5.630765 4.287200 -6.117748
v 3.683651 2.607791 -7.296021
v 4.842185 4.102703 -7.946436
v 5.899096 1.476538 -5.949890
v 7.057629 2.971450 -6.600305
v 5.110515 1.292041 -7.778578
v 6.269048 2.786952 -8.428991
v 7.695911 1.471202 -8.911548
v 6.537378 -0.023709 -8.261134
v 7.325960 0.160787 -6.432447
v 8.484492 1.655699 -7.082861
v 2.256787 3.923542 -6.813465
v 3.045367 4.108039 -4.984776
v 4.203902 5.602951 -5.635191
v 3.415320 5.418454 -7.463879
v 0.829923 5.239293 -6.330908
v 1.618505 5.423790 -4.502220
v 2.777038 6.918702 -5.152634
v 1.988456 6.734204 -6.981322
vn -0.3943 -0.0922 -0.9143
vn -0.5793 -0.7475 0.3252
vn 0.3943 0.0922 0.9143
vn 0.5793 0.7475 -0.3252
vn 0.7134 -0.6579 -0.2413
vn -0.7134 0.6579 0.2413
vt 0.625000 0.250000
vt 0.375000 0.250000
vt 0.625000 0.500000
vt 0.375000 0.500000
vt 0.375000 0.750000
vt 0.625000 0.750000
vt 0.625000 1.000000
vt 0.375000 1.000000
vt 0.125000 0.500000
vt 0.125000 0.750000
vt 0.875000 0.500000
vt 0.875000 0.750000
vt 0.375000 0.000000
vt 0.625000 0.000000
s 0
usemtl Material
f 50/29/13 49/30/13 59/30/13 62/29/13
f 49/30/13 50/29/13 54/31/13 53/32/13
f 51/33/14 53/32/14 56/32/14 57/33/14
f 51/33/15 52/34/15 48/35/15 47/36/15
f 49/37/14 53/32/14 51/33/14 47/38/14
f 54/31/16 50/39/16 48/40/16 52/34/16
f 56/32/17 55/31/17 58/34/17 57/33/17
f 54/31/16 52/34/16 58/34/16 55/31/16
f 53/32/13 54/31/13 55/31/13 56/32/13
f 52/34/15 51/33/15 57/33/15 58/34/15
f 62/29/13 59/30/13 63/30/13 66/29/13
f 47/36/15 48/35/15 61/35/15 60/36/15
f 48/40/16 50/39/16 62/39/16 61/40/16
f 49/37/14 47/38/14 60/38/14 59/37/14
f 64/41/18 65/42/18 66/29/18 63/30/18
f 60/36/15 61/35/15 65/35/15 64/36/15
f 61/40/16 62/39/16 66/39/16 65/40/16
f 59/37/14 60/38/14 64/38/14 63/37/14
o T
fc #e6f542
v 6.226851 5.903444 5.911489
v 7.481632 4.551473 5.138380
v 5.798796 4.649481 7.409603
v 7.053577 3.297510 6.636495
v 4.729422 5.129008 4.835405
v 5.984203 3.777036 4.062296
v 4.301367 3.875045 6.333520
v 5.556148 2.523074 5.560410
v 5.128093 1.269111 7.058525
v 3.873312 2.621082 7.831635
v 5.370740 3.395518 8.907718
v 6.625522 2.043547 8.134608
v 4.544014 6.001452 8.182713
v 3.046586 5.227016 7.106629
v 4.972069 7.255415 6.684598
v 3.474640 6.480978 5.608515
v 7.909687 5.805436 3.640265
v 6.412258 5.031000 2.564182
v 6.654905 7.157406 4.413375
v 5.157477 6.382970 3.337291
vn -0.7487 -0.3872 -0.5380
vn 0.6274 -0.6760 -0.3866
vn 0.7487 0.3872 0.5380
vn -0.2140 -0.6270 0.7491
vn -0.6274 0.6760 0.3866
vn 0.2140 0.6270 -0.7491
vt 0.625000 0.250000
vt 0.625000 0.000000
vt 0.375000 0.000000
vt 0.375000 0.250000
vt 0.125000 0.500000
vt 0.375000 0.500000
vt 0.375000 0.750000
vt 0.125000 0.750000
vt 0.625000 0.500000
vt 0.625000 0.750000
vt 0.625000 1.000000
vt 0.375000 1.000000
vt 0.875000 0.750000
vt 0.875000 0.500000
s 0
usemtl Material
f 71/43/19 73/44/19 80/44/19 82/43/19
f 73/44/19 74/45/19 75/45/19 76/44/19
f 74/45/19 73/44/19 71/43/19 72/46/19
f 72/47/20 68/48/20 70/49/20 74/50/20
f 68/48/21 67/51/21 69/52/21 70/49/21
f 67/51/21 68/48/21 83/48/21 85/51/21
f 78/49/22 77/52/22 76/53/22 75/54/22
f 74/50/20 70/49/20 78/49/20 75/50/20
f 69/52/23 73/55/23 76/55/23 77/52/23
f 70/49/21 69/52/21 77/52/21 78/49/21
f 81/51/23 82/56/23 80/55/23 79/52/23
f 69/52/21 67/51/21 81/51/21 79/52/21
f 67/51/24 71/43/24 82/43/24 81/51/24
f 73/55/22 69/52/22 79/52/22 80/55/22
f 84/46/24 86/43/24 85/51/24 83/48/24
f 72/46/19 71/43/19 86/43/19 84/46/19
f 68/48/20 72/47/20 84/47/20 83/48/20
f 71/43/23 67/51/23 85/51/23 86/43/23
o Z
fc #42f551
v -6.880556 3.960247 6.810083
v -6.983909 5.406844 5.432885
v -8.056717 2.801585 5.681302
v -8.160070 4.248182 4.304103
v -5.266256 3.208674 5.899493
v -5.369609 4.655271 4.522294
v -6.442417 2.050012 4.770711
v -6.545770 3.496609 3.393512
v -5.704394 5.118908 7.938865
v -5.807748 6.565505 6.561667
v -4.193448 5.813932 5.651076
v -4.090096 4.367335 7.028275
v -5.472961 6.101868 3.145095
v -7.087262 6.853440 4.055686
v -4.296801 7.260529 4.273877
v -5.911100 8.012102 5.184468
v -3.017287 6.972594 6.779858
v -4.631587 7.724167 7.690449
v -3.120639 8.419191 5.402659
v -4.734939 9.170764 6.313250
vn -0.8071 0.3758 0.4553
vn -0.5881 -0.5793 -0.5644
vn 0.8071 -0.3758 -0.4553
vn 0.0517 -0.7233 0.6886
vn -0.0517 0.7233 -0.6886
vn 0.5881 0.5793 0.5644
vt 0.375000 0.000000
vt 0.625000 0.000000
vt 0.625000 0.250000
vt 0.375000 0.250000
vt 0.625000 0.500000
vt 0.375000 0.500000
vt 0.625000 0.750000
vt 0.375000 0.750000
vt 0.125000 0.750000
vt 0.125000 0.500000
vt 0.875000 0.500000
vt 0.875000 0.750000
vt 0.625000 1.000000
vt 0.375000 1.000000
s 0
usemtl Material
f 87/57/25 88/58/25 90/59/25 89/60/25
f 89/60/26 90/59/26 94/61/26 93/62/26
f 93/62/27 94/61/27 92/63/27 91/64/27
f 87/65/28 91/64/28 98/64/28 95/65/28
f 89/66/28 93/62/28 91/64/28 87/65/28
f 94/61/29 90/67/29 88/68/29 92/63/29
f 98/64/30 97/63/30 96/69/30 95/70/30
f 97/63/27 92/63/27 99/63/27 101/63/27
f 91/64/27 92/63/27 97/63/27 98/64/27
f 88/58/25 87/57/25 95/57/25 96/58/25
f 99/63/29 100/68/29 102/68/29 101/63/29
f 101/63/29 102/68/29 106/68/29 105/63/29
f 92/63/26 88/68/26 100/68/26 99/63/26
f 88/58/25 96/58/25 102/58/25 100/58/25
f 104/69/30 103/63/30 105/63/30 106/69/30
f 96/69/28 97/63/28 103/63/28 104/69/28
f 102/58/25 96/58/25 104/58/25 106/58/25
f 97/63/27 101/63/27 105/63/27 103/63/27
